<?xml version="1.0" encoding="utf-8"?>
<!-- Generator: Adobe Illustrator 14.0.0, SVG Export Plug-In . SVG Version: 6.00 Build 43363)  -->
<!DOCTYPE svg PUBLIC "-//W3C//DTD SVG 1.1//EN" "http://www.w3.org/Graphics/SVG/1.1/DTD/svg11.dtd">
<svg version="1.1" id="Camada_1" xmlns="http://www.w3.org/2000/svg" xmlns:xlink="http://www.w3.org/1999/xlink" x="0px" y="0px"
	 width="267.5px" height="127.75px" viewBox="0 0 267.5 127.75" enable-background="new 0 0 267.5 127.75" xml:space="preserve">
<polygon fill="#283336" points="67.691,1.54 64.799,12.61 40.632,12.63 24.029,74.007 14.5,74.007 31.023,12.63 9.209,12.63 
	11.974,1.54 5.887,1.54 1.625,18.68 22.379,18.667 5.9,80.044 29.395,80.044 45.877,18.667 69.43,18.667 73.639,1.54 "/>
<polygon fill="#283336" points="14.727,90.476 38.225,90.476 54.695,29.093 78.26,29.104 82.285,12.608 76.348,12.608 
	73.629,23.034 49.459,23.052 32.859,84.43 16.346,84.43 "/>
<g>
	<path fill="#283336" d="M98.004,49.939v21.655h-9.42V19.284h33.959v8.299H98.004V41.64h22.43v8.299H98.004z"/>
	<path fill="#283336" d="M151.113,71.594v-4.287l-3.865,2.108c-3.445,1.827-6.117,2.675-9.777,2.675
		c-6.605,0-11.037-4.29-11.037-10.548c0-7.734,6.047-11.322,13.715-11.322h11.039v-2.177c0-4.785-2.744-7.103-7.6-7.103
		c-5.059,0-8.014,2.11-8.014,6.465h-8.297V46.92c0-8.37,6.613-13.081,16.244-13.081c10.127,0,15.963,5.059,15.963,13.918v23.837
		H151.113z M151.113,56.267h-9.84c-5.135,0-6.332,2.392-6.332,4.854c0,2.601,1.617,4.149,4.432,4.149
		c2.318,0,4.289-0.704,6.402-1.829l5.338-2.881V56.267z"/>
	<path fill="#283336" d="M183.973,71.594c-8.58,0-14.133-4.287-14.133-12.725V41.783h-5.627v-7.242h5.627V24.485h8.719v10.056
		h10.264v7.242h-10.264v16.593c0,4.363,1.969,5.838,6.111,5.838h4.363v7.38H183.973z"/>
	<path fill="#283336" d="M226.176,59.924c0,7.523-6.471,12.305-16.244,12.305c-9.561,0-16.377-5.204-16.377-14.271v-8.791
		c0-9.354,6.816-15.19,16.377-15.19c9.637,0,16.311,5.559,16.311,15.333v6.536h-24.605v1.829c0,5.274,3.516,7.594,8.363,7.594
		c4.789,0,8.02-1.688,8.02-5.697h8.156V59.924z M218.229,49.167c0-5.278-3.092-8.158-8.229-8.158c-5.197,0-8.363,2.88-8.363,8.229
		v0.91h16.592V49.167z"/>
	<path fill="#283336" d="M265.576,58.097c0,9.28-6.402,14.131-16.037,14.131c-9.561,0-15.955-5.272-15.955-14.483v-9.211
		c0-9.211,6.395-14.558,15.955-14.558c9.635,0,16.037,4.921,16.037,14.206v0.632h-8.227c0-5.274-2.887-7.453-7.811-7.453
		c-4.848,0-7.66,2.526-7.66,7.875v7.732c0,5.349,2.813,7.877,7.66,7.877c4.924,0,7.811-2.108,7.811-7.384h8.227V58.097z"/>
</g>
<g>
	<g>
		<path fill="#283336" d="M73.609,94.431V76.483h8.033c2.773,0,5.041,1.423,5.041,4.656c0,2.847-2.219,3.908-2.219,3.908
			s2.799,0.844,2.799,4.342c0,3.329-2.51,5.042-5.188,5.042H73.609z M80.871,83.961c1.52,0,2.652-0.893,2.652-2.509
			c0-1.616-1.084-2.34-2.605-2.34h-4.125v4.849H80.871z M81.4,91.729c1.449,0,2.582-0.796,2.582-2.485c0-1.737-1.23-2.63-2.701-2.63
			h-4.488v5.115H81.4z"/>
		<path fill="#283336" d="M97.855,94.431v-1.472l-1.326,0.724c-1.182,0.627-2.1,0.917-3.354,0.917c-2.268,0-3.787-1.472-3.787-3.619
			c0-2.654,2.074-3.884,4.703-3.884h3.789V86.35c0-1.641-0.941-2.437-2.605-2.437c-1.738,0-2.75,0.724-2.75,2.219h-2.848v-0.169
			c0-2.871,2.268-4.487,5.572-4.487c3.475,0,5.477,1.737,5.477,4.776v8.178H97.855z M97.855,89.172h-3.377
			c-1.762,0-2.172,0.82-2.172,1.665c0,0.893,0.555,1.423,1.521,1.423c0.795,0,1.471-0.241,2.195-0.627l1.832-0.989V89.172z"/>
		<path fill="#283336" d="M106.832,78.292c0,0.893-0.701,1.375-1.666,1.375c-0.939,0-1.664-0.482-1.664-1.375v-0.531
			c0-0.917,0.725-1.399,1.664-1.399c0.965,0,1.666,0.482,1.666,1.399V78.292z M103.672,94.431V81.718h2.99v12.713H103.672z"/>
		<path fill="#283336" d="M117.592,94.431l-2.822-4.704l-2.871,4.704h-3.305l4.197-6.441l-4.076-6.272h3.328l2.775,4.487
			l2.725-4.487h3.354l-4.221,6.272l4.342,6.441H117.592z"/>
		<path fill="#283336" d="M130.885,94.431v-1.472l-1.326,0.724c-1.182,0.627-2.1,0.917-3.354,0.917
			c-2.268,0-3.787-1.472-3.787-3.619c0-2.654,2.074-3.884,4.703-3.884h3.789V86.35c0-1.641-0.941-2.437-2.605-2.437
			c-1.738,0-2.75,0.724-2.75,2.219h-2.848v-0.169c0-2.871,2.268-4.487,5.572-4.487c3.475,0,5.477,1.737,5.477,4.776v8.178H130.885z
			 M130.885,89.172h-3.377c-1.762,0-2.172,0.82-2.172,1.665c0,0.893,0.555,1.423,1.521,1.423c0.795,0,1.471-0.241,2.195-0.627
			l1.832-0.989V89.172z"/>
		<path fill="#283336" d="M145.072,94.431v-1.375l-1.471,0.796c-0.99,0.555-1.906,0.748-2.848,0.748
			c-2.629,0-4.365-1.761-4.365-4.342v-4.27c0-2.557,1.785-4.391,4.414-4.391c0.941,0,1.809,0.193,2.799,0.748l1.447,0.796v-6.658
			h2.871v17.948H145.072z M145.049,85.819l-2.027-1.134c-0.531-0.29-1.109-0.482-1.785-0.482c-1.205,0-2.002,0.82-2.002,2.075v3.619
			c0,1.278,0.797,2.099,2.002,2.099c0.676,0,1.254-0.217,1.785-0.507l2.027-1.109V85.819z"/>
		<path fill="#283336" d="M158.945,94.431v-1.472l-1.328,0.724c-1.182,0.627-2.098,0.917-3.352,0.917
			c-2.268,0-3.789-1.472-3.789-3.619c0-2.654,2.076-3.884,4.705-3.884h3.787V86.35c0-1.641-0.941-2.437-2.605-2.437
			c-1.736,0-2.75,0.724-2.75,2.219h-2.846v-0.169c0-2.871,2.268-4.487,5.572-4.487c3.473,0,5.477,1.737,5.477,4.776v8.178H158.945z
			 M158.945,89.172h-3.377c-1.762,0-2.172,0.82-2.172,1.665c0,0.893,0.555,1.423,1.52,1.423c0.797,0,1.471-0.241,2.195-0.627
			l1.834-0.989V89.172z"/>
		<path fill="#283336" d="M181.84,81.935c0-2.051-1.205-2.967-3.521-2.967c-2.244,0-3.449,0.94-3.449,2.509
			c0,4.27,10.373,0.579,10.373,7.72c0,3.329-2.654,5.404-6.947,5.404c-4.295,0-6.947-1.81-6.947-5.549v-0.193h3.279
			c0,2.051,1.328,2.992,3.715,2.992c2.365,0,3.619-0.965,3.619-2.485c0-4.222-10.373-0.579-10.373-7.792
			c0-3.305,2.605-5.379,6.754-5.379c4.199,0,6.805,1.761,6.805,5.524v0.217H181.84z"/>
		<path fill="#283336" d="M196.004,94.431v-1.472l-1.328,0.724c-1.182,0.627-2.098,0.917-3.352,0.917
			c-2.268,0-3.789-1.472-3.789-3.619c0-2.654,2.076-3.884,4.705-3.884h3.787V86.35c0-1.641-0.941-2.437-2.605-2.437
			c-1.736,0-2.75,0.724-2.75,2.219h-2.846v-0.169c0-2.871,2.268-4.487,5.572-4.487c3.473,0,5.477,1.737,5.477,4.776v8.178H196.004z
			 M196.004,89.172h-3.377c-1.762,0-2.172,0.82-2.172,1.665c0,0.893,0.555,1.423,1.52,1.423c0.797,0,1.471-0.241,2.195-0.627
			l1.834-0.989V89.172z"/>
		<path fill="#283336" d="M209.9,94.431v-8.347c0-0.965-0.529-1.881-1.688-1.881c-0.652,0-1.135,0.241-1.664,0.555l-1.859,1.11
			v8.564h-2.918V81.718h2.895v1.496l1.352-0.82c0.965-0.603,1.857-0.796,2.822-0.82c2.484,0,4.004,1.665,4.004,4.125v8.733H209.9z"
			/>
		<path fill="#283336" d="M221.313,94.431c-2.943,0-4.85-1.472-4.85-4.367v-5.862h-1.93v-2.485h1.93v-3.45h2.992v3.45h3.521v2.485
			h-3.521v5.693c0,1.496,0.676,2.002,2.1,2.002h1.494v2.533H221.313z"/>
		<path fill="#283336" d="M228.551,78.292c0,0.893-0.699,1.375-1.664,1.375c-0.941,0-1.664-0.482-1.664-1.375v-0.531
			c0-0.917,0.723-1.399,1.664-1.399c0.965,0,1.664,0.482,1.664,1.399V78.292z M225.391,94.431V81.718h2.992v12.713H225.391z"/>
		<path fill="#283336" d="M239.168,85.843c0-1.351-0.941-1.978-2.582-1.978s-2.484,0.675-2.484,1.568
			c0,2.919,7.984,0.024,7.984,5.235c0,2.484-2.146,3.956-5.5,3.956c-3.521,0-5.549-1.568-5.549-4.149V90.33h2.943
			c0,1.351,0.965,1.978,2.654,1.978c1.664,0,2.605-0.651,2.605-1.568c0-2.629-7.986,0.048-7.986-5.235c0-2.509,2.1-3.98,5.404-3.98
			c3.498,0,5.379,1.592,5.379,4.173v0.145H239.168z"/>
		<path fill="#283336" d="M250.434,94.431c-2.943,0-4.85-1.472-4.85-4.367v-5.862h-1.93v-2.485h1.93v-3.45h2.992v3.45h3.521v2.485
			h-3.521v5.693c0,1.496,0.676,2.002,2.1,2.002h1.494v2.533H250.434z"/>
		<path fill="#283336" d="M262.449,94.431v-1.472l-1.328,0.724c-1.182,0.627-2.098,0.917-3.352,0.917
			c-2.268,0-3.789-1.472-3.789-3.619c0-2.654,2.076-3.884,4.705-3.884h3.787V86.35c0-1.641-0.941-2.437-2.605-2.437
			c-1.736,0-2.75,0.724-2.75,2.219h-2.846v-0.169c0-2.871,2.268-4.487,5.572-4.487c3.473,0,5.477,1.737,5.477,4.776v8.178H262.449z
			 M262.449,89.172h-3.377c-1.762,0-2.172,0.82-2.172,1.665c0,0.893,0.555,1.423,1.52,1.423c0.797,0,1.471-0.241,2.195-0.627
			l1.834-0.989V89.172z"/>
	</g>
</g>
<g>
	<g>
		<path fill="#283336" d="M181.346,115.945c0.773-0.143,1.91-0.236,3.203-0.236c1.578,0,2.684,0.236,3.439,0.852
			c0.646,0.504,0.994,1.246,0.994,2.225c0,1.34-0.963,2.271-1.877,2.602v0.049c0.742,0.299,1.152,0.994,1.42,1.971
			c0.332,1.215,0.646,2.604,0.852,3.014h-2.461c-0.158-0.299-0.426-1.166-0.727-2.477c-0.299-1.342-0.756-1.688-1.75-1.703h-0.711
			v4.18h-2.383V115.945z M183.729,120.504h0.947c1.199,0,1.908-0.6,1.908-1.531c0-0.961-0.662-1.467-1.766-1.467
			c-0.584,0-0.916,0.033-1.09,0.08V120.504z"/>
		<path fill="#283336" d="M197.865,123.943c0,1.01,0.031,1.83,0.063,2.477h-2.082l-0.111-1.088h-0.047
			c-0.301,0.473-1.025,1.262-2.414,1.262c-1.578,0-2.715-0.979-2.715-3.359v-4.529h2.398v4.15c0,1.119,0.363,1.799,1.215,1.799
			c0.664,0,1.057-0.459,1.199-0.838c0.063-0.141,0.096-0.314,0.096-0.52v-4.592h2.398V123.943z"/>
		<path fill="#283336" d="M199.789,115.219h2.396v4.402h0.033c0.457-0.664,1.262-1.09,2.334-1.09c1.846,0,3.188,1.531,3.172,3.898
			c0,2.775-1.752,4.164-3.52,4.164c-0.898,0-1.781-0.33-2.318-1.246h-0.031l-0.096,1.072h-2.035
			c0.031-0.504,0.064-1.436,0.064-2.303V115.219z M202.186,123.139c0,0.158,0.016,0.301,0.049,0.426
			c0.156,0.631,0.709,1.137,1.404,1.137c1.025,0,1.656-0.789,1.656-2.178c0-1.199-0.537-2.146-1.656-2.146
			c-0.648,0-1.248,0.49-1.404,1.184c-0.033,0.143-0.049,0.285-0.049,0.441V123.139z"/>
		<path fill="#283336" d="M211.115,123.313c0.078,1.01,1.057,1.482,2.176,1.482c0.82,0,1.484-0.109,2.131-0.33l0.316,1.625
			c-0.789,0.33-1.752,0.488-2.793,0.488c-2.619,0-4.119-1.514-4.119-3.943c0-1.957,1.23-4.119,3.898-4.119
			c2.492,0,3.439,1.941,3.439,3.85c0,0.41-0.049,0.773-0.08,0.963L211.115,123.313z M213.939,121.672
			c0-0.568-0.254-1.563-1.342-1.563c-1.025,0-1.436,0.932-1.498,1.563H213.939z"/>
		<path fill="#283336" d="M217.598,121.166c0-0.961-0.031-1.766-0.063-2.461h2.082l0.111,1.072h0.047
			c0.314-0.504,1.088-1.246,2.383-1.246c1.576,0,2.76,1.059,2.76,3.33v4.559h-2.398v-4.275c0-0.994-0.346-1.672-1.215-1.672
			c-0.662,0-1.057,0.457-1.23,0.898c-0.063,0.158-0.078,0.379-0.078,0.6v4.449h-2.398V121.166z"/>
		<path fill="#283336" d="M226.826,124.338c0.441,0.268,1.357,0.568,2.066,0.568c0.727,0,1.025-0.236,1.025-0.631
			c0-0.41-0.236-0.6-1.119-0.9c-1.609-0.52-2.225-1.404-2.209-2.303c0-1.451,1.23-2.541,3.139-2.541c0.9,0,1.689,0.221,2.162,0.459
			l-0.41,1.641c-0.348-0.174-1.025-0.426-1.672-0.426c-0.584,0-0.916,0.236-0.916,0.615s0.301,0.566,1.246,0.898
			c1.469,0.49,2.068,1.246,2.084,2.367c0,1.451-1.121,2.508-3.33,2.508c-1.01,0-1.908-0.236-2.492-0.553L226.826,124.338z"/>
		<path fill="#283336" d="M236.969,115.787h2.398v8.613h4.229v2.02h-6.627V115.787z"/>
		<path fill="#283336" d="M251.42,124.559c0,0.727,0.031,1.436,0.127,1.861h-2.162l-0.141-0.771h-0.049
			c-0.504,0.615-1.293,0.945-2.209,0.945c-1.561,0-2.492-1.135-2.492-2.365c0-2.004,1.799-2.951,4.527-2.951v-0.096
			c0-0.41-0.221-0.992-1.404-0.992c-0.787,0-1.625,0.268-2.129,0.566l-0.441-1.529c0.535-0.301,1.594-0.695,2.998-0.695
			c2.57,0,3.375,1.516,3.375,3.33V124.559z M249.102,122.775c-1.262,0-2.24,0.301-2.24,1.215c0,0.615,0.41,0.916,0.945,0.916
			c0.584,0,1.09-0.395,1.248-0.885c0.031-0.125,0.047-0.268,0.047-0.41V122.775z"/>
		<path fill="#283336" d="M253.344,121.246c0-1.137-0.016-1.879-0.063-2.541h2.051l0.094,1.436h0.064
			c0.395-1.135,1.324-1.609,2.082-1.609c0.221,0,0.332,0.016,0.506,0.049v2.256c-0.205-0.031-0.395-0.064-0.664-0.064
			c-0.883,0-1.482,0.459-1.641,1.215c-0.031,0.158-0.047,0.332-0.047,0.537v3.896h-2.398L253.344,121.246z"/>
		<path fill="#283336" d="M265.57,124.559c0,0.727,0.031,1.436,0.127,1.861h-2.162l-0.141-0.771h-0.049
			c-0.504,0.615-1.293,0.945-2.209,0.945c-1.561,0-2.492-1.135-2.492-2.365c0-2.004,1.799-2.951,4.527-2.951v-0.096
			c0-0.41-0.221-0.992-1.404-0.992c-0.787,0-1.625,0.268-2.129,0.566l-0.441-1.529c0.535-0.301,1.594-0.695,2.998-0.695
			c2.57,0,3.375,1.516,3.375,3.33V124.559z M263.252,122.775c-1.262,0-2.24,0.301-2.24,1.215c0,0.615,0.41,0.916,0.945,0.916
			c0.584,0,1.09-0.395,1.248-0.885c0.031-0.125,0.047-0.268,0.047-0.41V122.775z"/>
	</g>
</g>
</svg>
